<?xml version="1.0" encoding="iso-8859-1"?>
<!-- Uploaded to: SVG Repo, www.svgrepo.com, Generator: SVG Repo Mixer Tools -->
<svg height="800px" width="800px" version="1.1" id="Layer_1" xmlns="http://www.w3.org/2000/svg" xmlns:xlink="http://www.w3.org/1999/xlink" 
	 viewBox="0 0 512 512" xml:space="preserve">
<path style="fill:#769CA5;" d="M482.358,115.874v280.253c0,11.906-9.651,21.558-21.558,21.558H51.2
	c-11.906,0-21.558-9.651-21.558-21.558V115.874c0-11.906,9.651-21.558,21.558-21.558h409.6
	C472.706,94.316,482.358,103.967,482.358,115.874z"/>
<path style="fill:#5B7A7F;" d="M482.358,256v140.126c0,11.906-9.651,21.558-21.558,21.558H51.2
	c-11.906,0-21.558-9.651-21.558-21.558V256H482.358z"/>
<path style="fill:#C1C1C1;" d="M482.358,94.316v32.337H29.642V94.316c0-11.906,9.651-21.558,21.558-21.558h409.6
	C472.706,72.758,482.358,82.409,482.358,94.316z M29.642,417.684c0,11.906,9.651,21.558,21.558,21.558h409.6
	c11.906,0,21.558-9.651,21.558-21.558v-32.337H29.642V417.684z"/>
<path style="fill:#DBDBDB;" d="M256,385.347h226.358v32.337c0,11.906-9.651,21.558-21.558,21.558H256V385.347z M460.8,72.758H256
	v53.895h226.358V94.316C482.358,82.409,472.706,72.758,460.8,72.758z"/>
<path style="fill:#F4C064;" d="M61.979,299.116v32.337c0,5.953-4.826,10.779-10.779,10.779H18.863
	c-5.953,0-10.779-4.826-10.779-10.779v-32.337c0-5.953,4.826-10.779,10.779-10.779H51.2
	C57.153,288.337,61.979,293.163,61.979,299.116z"/>
<path style="fill:#FFE77C;" d="M353.01,191.326v32.337c0,5.953-4.826,10.779-10.779,10.779h-32.337
	c-5.953,0-10.779-4.826-10.779-10.779v-32.337c0-5.953,4.826-10.779,10.779-10.779h32.337
	C348.185,180.547,353.01,185.373,353.01,191.326z"/>
<path style="fill:#BBFFAB;" d="M374.568,288.337v53.895c0,5.953-4.826,10.779-10.779,10.779h-53.895
	c-5.953,0-10.779-4.826-10.779-10.779v-53.895c0-5.953,4.826-10.779,10.779-10.779h53.895
	C369.743,277.558,374.568,282.384,374.568,288.337z"/>
<path style="fill:#A7E5CB;" d="M450.021,277.558v21.558c0,5.953-4.826,10.779-10.779,10.779h-21.558
	c-5.953,0-10.779-4.826-10.779-10.779v-21.558c0-5.953,4.826-10.779,10.779-10.779h21.558
	C445.195,266.779,450.021,271.605,450.021,277.558z"/>
<path style="fill:#91F18B;" d="M105.095,169.768v75.453c0,5.953-4.826,10.779-10.779,10.779H18.863
	c-5.953,0-10.779-4.826-10.779-10.779v-75.453c0-5.953,4.826-10.779,10.779-10.779h75.453
	C100.269,158.989,105.095,163.815,105.095,169.768z"/>
<path style="fill:#D199D1;" d="M266.779,212.884v107.789c0,5.953-4.826,10.779-10.779,10.779H148.211
	c-5.953,0-10.779-4.826-10.779-10.779V212.884c0-5.953,4.826-10.779,10.779-10.779H256
	C261.953,202.105,266.779,206.931,266.779,212.884z"/>
<path style="fill:#FF9CAB;" d="M503.916,126.653v97.011c0,5.953-4.826,10.779-10.779,10.779h-97.01
	c-5.953,0-10.779-4.826-10.779-10.779v-97.011c0-5.953,4.826-10.779,10.779-10.779h97.01
	C499.09,115.874,503.916,120.699,503.916,126.653z"/>
<path style="fill:#F7F7F7;" d="M277.558,126.653c0,11.906-9.651,21.558-21.558,21.558c-11.906,0-21.558-9.651-21.558-21.558
	s9.651-21.558,21.558-21.558C267.906,105.095,277.558,114.746,277.558,126.653z"/>
<path style="fill:#9B9B9B;" d="M261.389,126.653c0,2.976-2.413,5.389-5.389,5.389s-5.389-2.413-5.389-5.389s2.413-5.389,5.389-5.389
	S261.389,123.677,261.389,126.653z"/>
<path d="M256,194.021H148.211c-10.401,0-18.863,8.463-18.863,18.863v107.789c0,10.401,8.463,18.863,18.863,18.863H256
	c10.401,0,18.863-8.463,18.863-18.863V212.884C274.863,202.484,266.401,194.021,256,194.021z M258.695,320.674
	c0,1.486-1.208,2.695-2.695,2.695H148.211c-1.486,0-2.695-1.208-2.695-2.695V212.884c0-1.486,1.208-2.695,2.695-2.695H256
	c1.486,0,2.695,1.208,2.695,2.695V320.674z M309.895,242.526h32.337c10.401,0,18.863-8.463,18.863-18.863v-32.337
	c0-10.401-8.463-18.863-18.863-18.863h-32.337c-10.401,0-18.863,8.463-18.863,18.863v32.337
	C291.032,234.064,299.494,242.526,309.895,242.526z M307.2,191.326c0-1.486,1.208-2.695,2.695-2.695h32.337
	c1.486,0,2.695,1.208,2.695,2.695v32.337c0,1.486-1.208,2.695-2.695,2.695h-32.337c-1.486,0-2.695-1.208-2.695-2.695V191.326z
	 M493.137,107.789h-2.695V94.316c0-16.344-13.298-29.642-29.642-29.642H51.2c-16.344,0-29.642,13.298-29.642,29.642v56.589h-2.695
	C8.463,150.905,0,159.368,0,169.768v75.453c0,10.401,8.463,18.863,18.863,18.863h2.695v16.168h-2.695
	C8.463,280.253,0,288.715,0,299.116v32.337c0,10.401,8.463,18.863,18.863,18.863h2.695v67.368c0,16.344,13.298,29.642,29.642,29.642
	h409.6c16.344,0,29.642-13.298,29.642-29.642V242.526h2.695c10.401,0,18.863-8.463,18.863-18.863v-97.011
	C512,116.252,503.537,107.789,493.137,107.789z M18.863,247.916c-1.486,0-2.695-1.208-2.695-2.695v-75.453
	c0-1.486,1.208-2.695,2.695-2.695h75.453c1.486,0,2.695,1.208,2.695,2.695v75.453c0,1.486-1.208,2.695-2.695,2.695H18.863z
	 M18.863,334.147c-1.486,0-2.695-1.208-2.695-2.695v-32.337c0-1.486,1.208-2.695,2.695-2.695H51.2c1.486,0,2.695,1.208,2.695,2.695
	v32.337c0,1.486-1.208,2.695-2.695,2.695H18.863z M474.274,377.263h-78.147c-4.466,0-8.084,3.618-8.084,8.084
	s3.618,8.084,8.084,8.084h78.147v24.253c0,7.43-6.044,13.474-13.474,13.474H51.2c-7.43,0-13.474-6.044-13.474-13.474v-24.253
	h326.063c4.466,0,8.084-3.618,8.084-8.084s-3.618-8.084-8.084-8.084H37.726v-26.947H51.2c10.401,0,18.863-8.463,18.863-18.863
	v-32.337c0-10.401-8.463-18.863-18.863-18.863H37.726v-16.168h56.589c10.401,0,18.863-8.463,18.863-18.863v-75.453
	c0-10.401-8.463-18.863-18.863-18.863H37.726v-16.168h189.751c3.527,12.428,14.978,21.558,28.522,21.558s24.994-9.13,28.522-21.558
	h68.488c4.466,0,8.084-3.618,8.084-8.084c0-4.466-3.618-8.084-8.084-8.084h-68.488C280.995,106.14,269.544,97.011,256,97.011
	s-24.994,9.13-28.522,21.558H37.726V94.316c0-7.43,6.044-13.474,13.474-13.474h409.6c7.43,0,13.474,6.044,13.474,13.474v13.474
	h-78.147c-10.401,0-18.863,8.463-18.863,18.863v97.011c0,10.401,8.463,18.863,18.863,18.863h78.147V377.263z M242.526,126.653
	c0-7.43,6.044-13.474,13.474-13.474c7.43,0,13.474,6.044,13.474,13.474S263.43,140.126,256,140.126
	C248.57,140.126,242.526,134.083,242.526,126.653z M495.832,223.663c0,1.486-1.208,2.695-2.695,2.695h-97.01
	c-1.486,0-2.695-1.208-2.695-2.695v-97.011c0-1.486,1.208-2.695,2.695-2.695h97.01c1.486,0,2.695,1.208,2.695,2.695V223.663z
	 M363.789,269.474h-53.895c-10.401,0-18.863,8.463-18.863,18.863v53.895c0,10.401,8.463,18.863,18.863,18.863h53.895
	c10.401,0,18.863-8.463,18.863-18.863v-53.895C382.653,277.936,374.19,269.474,363.789,269.474z M366.484,342.232
	c0,1.486-1.208,2.695-2.695,2.695h-53.895c-1.486,0-2.695-1.208-2.695-2.695v-53.895c0-1.486,1.208-2.695,2.695-2.695h53.895
	c1.486,0,2.695,1.208,2.695,2.695V342.232z M417.684,317.979h21.558c10.401,0,18.863-8.463,18.863-18.863v-21.558
	c0-10.401-8.463-18.863-18.863-18.863h-21.558c-10.401,0-18.863,8.463-18.863,18.863v21.558
	C398.821,309.516,407.284,317.979,417.684,317.979z M414.989,277.558c0-1.486,1.208-2.695,2.695-2.695h21.558
	c1.486,0,2.695,1.208,2.695,2.695v21.558c0,1.486-1.208,2.695-2.695,2.695h-21.558c-1.486,0-2.695-1.208-2.695-2.695V277.558z"/>
</svg>