<?xml version="1.0" encoding="iso-8859-1"?>
<!-- Uploaded to: SVG Repo, www.svgrepo.com, Generator: SVG Repo Mixer Tools -->
<svg height="800px" width="800px" version="1.1" id="Layer_1" xmlns="http://www.w3.org/2000/svg" xmlns:xlink="http://www.w3.org/1999/xlink" 
	 viewBox="0 0 512.002 512.002" xml:space="preserve">
<path style="fill:#5B7A7F;" d="M245.222,277.559v86.461v118.568c0,12.167-10.079,21.98-22.344,21.544
	c-11.682-0.415-20.772-10.372-20.772-22.06v-96.494c0-11.906-9.651-21.558-21.558-21.558l0,0c-11.906,0-21.558,9.651-21.558,21.558
	v97.011c0,12.167-10.079,21.98-22.344,21.544c-11.682-0.415-20.772-10.372-20.772-22.06V364.02v-86.461H245.222z"/>
<path style="fill:#90B5BF;" d="M277.559,191.557v107.789H83.538V191.557c0-35.718,28.955-64.674,64.674-64.674h64.674
	C248.603,126.883,277.559,155.839,277.559,191.557z"/>
<path style="fill:#769CA5;" d="M180.548,299.346H83.538V191.557c0-35.718,28.955-64.674,64.674-64.674h32.337V299.346z"/>
<path style="fill:#F4C064;" d="M223.664,51.431c0,23.812-19.304,43.116-43.116,43.116s-43.116-19.304-43.116-43.116
	s19.304-43.116,43.116-43.116S223.664,27.619,223.664,51.431z M115.875,213.115H83.538v118.568c0,11.905,9.651,21.558,21.558,21.558
	s21.558-9.653,21.558-21.558V223.894C126.654,217.941,121.828,213.115,115.875,213.115z M331.454,277.789h-53.895v-64.674h-32.337
	c-5.953,0-10.779,4.826-10.779,10.779v75.453c0,11.905,9.651,21.558,21.558,21.558h75.453c11.906,0,21.558-9.653,21.558-21.558l0,0
	C353.012,287.44,343.36,277.789,331.454,277.789z"/>
<path style="fill:#F4AB53;" d="M180.548,8.315v86.232c-23.812,0-43.116-19.304-43.116-43.116
	C137.433,27.618,156.737,8.315,180.548,8.315z"/>
<path style="fill:#FFA233;" d="M406.906,191.557c11.906,0,21.558,9.651,21.558,21.558c0,11.905-9.651,21.558-21.558,21.558h-64.674
	c-11.906,0-21.558-9.653-21.558-21.558c0-11.906,9.651-21.558,21.558-21.558c-11.906,0-21.558-9.653-21.558-21.558
	c0-11.906,9.651-21.558,21.558-21.558c-11.906,0-21.558-9.653-21.558-21.558c0-11.906,9.651-21.558,21.558-21.558h64.674
	c11.906,0,21.558,9.651,21.558,21.558c0,11.905-9.651,21.558-21.558,21.558c11.906,0,21.558,9.651,21.558,21.558
	C428.464,181.904,418.813,191.557,406.906,191.557z M321.494,44.392c2.067,11.725,13.248,19.554,24.974,17.487l63.691-11.231
	c11.725-2.067,19.554-13.249,17.487-24.974c-2.067-11.725-13.248-19.554-24.974-17.487l-63.691,11.231
	C327.255,21.485,319.427,32.667,321.494,44.392L321.494,44.392z"/>
<path style="fill:#FFC248;" d="M428.464,213.115L428.464,213.115H320.675l0,0c0-11.906,9.651-21.558,21.558-21.558h64.674
	C418.813,191.557,428.464,201.208,428.464,213.115z M406.906,148.441h-64.674c-11.906,0-21.558,9.651-21.558,21.558l0,0h107.789l0,0
	C428.464,158.093,418.813,148.441,406.906,148.441z M406.906,105.325h-64.674c-11.906,0-21.558,9.651-21.558,21.558l0,0h107.789l0,0
	C428.464,114.977,418.813,105.325,406.906,105.325z M321.494,44.392l106.152-18.718l0,0c-2.067-11.725-13.248-19.554-24.974-17.487
	l-63.691,11.231C327.255,21.485,319.427,32.667,321.494,44.392L321.494,44.392z"/>
<path d="M313.533,46.03c-2.839-16.096,7.947-31.5,24.044-34.338l35.59-6.276c4.393-0.781,8.59,2.16,9.365,6.557
	s-2.16,8.591-6.557,9.365l-35.59,6.276c-3.544,0.625-6.633,2.592-8.696,5.541c-2.064,2.947-2.856,6.523-2.232,10.068
	c0.625,3.544,2.592,6.633,5.541,8.696c2.948,2.064,6.523,2.854,10.068,2.232c4.393-0.777,8.59,2.16,9.365,6.557
	c0.776,4.398-2.16,8.591-6.557,9.365c-1.739,0.307-3.481,0.458-5.211,0.458c-6.028,0.001-11.899-1.839-16.939-5.367
	C319.236,60.623,314.907,53.827,313.533,46.03z M404.076,16.383c3.543-0.622,7.118,0.168,10.068,2.231
	c2.948,2.064,4.916,5.152,5.541,8.698c0.624,3.544-0.168,7.119-2.232,10.068c-2.063,2.948-5.152,4.915-8.696,5.541l-35.59,6.276
	c-4.397,0.775-7.333,4.968-6.557,9.365c0.692,3.922,4.102,6.681,7.952,6.681c0.467,0,0.939-0.04,1.414-0.124l35.59-6.276
	c16.096-2.838,26.882-18.242,24.044-34.338c-1.374-7.796-5.703-14.593-12.19-19.134c-6.486-4.542-14.352-6.29-22.15-4.91
	c-4.397,0.776-7.333,4.968-6.557,9.365C395.488,14.222,399.683,17.163,404.076,16.383z M436.548,169.773
	c0-8.485-3.583-16.149-9.317-21.558c5.733-5.409,9.317-13.073,9.317-21.558c0-16.344-13.298-29.642-29.642-29.642
	c-4.466,0-8.084,3.618-8.084,8.084s3.618,8.084,8.084,8.084c7.43,0,13.474,6.044,13.474,13.474s-6.044,13.474-13.474,13.474
	c-4.466,0-8.084,3.618-8.084,8.084c0,4.466,3.618,8.084,8.084,8.084c7.43,0,13.474,6.044,13.474,13.474s-6.044,13.474-13.474,13.474
	c-4.466,0-8.084,3.618-8.084,8.084s3.618,8.084,8.084,8.084c7.43,0,13.474,6.044,13.474,13.474s-6.044,13.474-13.474,13.474h-64.674
	c-7.43,0-13.474-6.044-13.474-13.474s6.044-13.474,13.474-13.474h32.337c4.466,0,8.084-3.618,8.084-8.084s-3.618-8.084-8.084-8.084
	h-32.337c-7.43,0-13.474-6.044-13.474-13.474s6.044-13.474,13.474-13.474h32.337c4.466,0,8.084-3.618,8.084-8.084
	c0-4.466-3.618-8.084-8.084-8.084h-32.337c-7.43,0-13.474-6.044-13.474-13.474s6.044-13.474,13.474-13.474h32.337
	c4.466,0,8.084-3.618,8.084-8.084s-3.618-8.084-8.084-8.084h-32.337c-16.344,0-29.642,13.298-29.642,29.642
	c0,8.485,3.583,16.149,9.318,21.558c-5.734,5.409-9.318,13.073-9.318,21.558s3.583,16.149,9.318,21.558
	c-5.734,5.409-9.318,13.073-9.318,21.558c0,16.344,13.298,29.642,29.642,29.642h64.674c16.344,0,29.642-13.298,29.642-29.642
	c0-8.485-3.583-16.149-9.317-21.558C432.965,185.922,436.548,178.258,436.548,169.773z M129.348,51.206
	c0-28.231,22.969-51.199,51.2-51.199s51.2,22.968,51.2,51.199s-22.969,51.199-51.2,51.199S129.348,79.438,129.348,51.206z
	 M145.517,51.206c0,19.317,15.715,35.032,35.032,35.032s35.032-15.715,35.032-35.032s-15.715-35.032-35.032-35.032
	S145.517,31.889,145.517,51.206z M361.096,299.119c0,16.344-13.298,29.642-29.642,29.642h-75.453c-0.908,0-1.808-0.041-2.695-0.121
	v153.719c0,8.117-3.216,15.692-9.059,21.33c-5.579,5.383-12.846,8.312-20.567,8.313c-0.362,0-0.724-0.008-1.09-0.02
	c-16.02-0.57-28.569-13.81-28.569-30.14v-96.492c0-7.429-6.044-13.474-13.474-13.474s-13.474,6.044-13.474,13.474v97.009
	c0,8.117-3.216,15.692-9.059,21.33c-5.841,5.635-13.509,8.569-21.657,8.292c-16.02-0.57-28.569-13.81-28.569-30.14V360.976
	c-0.887,0.08-1.787,0.121-2.695,0.121c-16.344,0-29.642-13.298-29.642-29.642V191.331c0-40.118,32.639-72.757,72.758-72.757h64.674
	c40.119,0,72.758,32.639,72.758,72.757v78.146h45.811C347.798,269.477,361.096,282.775,361.096,299.119z M237.138,321.968
	c-4.572-3.782-7.996-8.908-9.659-14.765h-92.741v24.253c0,9.185-4.199,17.407-10.779,22.849v127.536
	c0,7.455,5.82,13.727,12.975,13.981c3.706,0.119,7.2-1.206,9.854-3.768c2.656-2.563,4.119-6.007,4.119-9.697v-97.009
	c0-16.344,13.298-29.642,29.642-29.642s29.642,13.298,29.642,29.642v96.492c0,7.455,5.82,13.727,12.975,13.981
	c3.709,0.119,7.2-1.206,9.854-3.768c2.656-2.563,4.119-6.007,4.119-9.697V321.968z M344.927,299.119
	c0-7.429-6.044-13.474-13.474-13.474h-53.895c-4.466,0-8.084-3.618-8.084-8.084v-86.23c0-31.203-25.387-56.588-56.589-56.588
	h-64.674c-31.203,0-56.589,25.385-56.589,56.588v140.124c0,7.429,6.044,13.474,13.474,13.474c2.422,0,4.695-0.642,6.662-1.766
	c0.047-0.027,0.094-0.055,0.141-0.082c3.987-2.342,6.67-6.676,6.67-11.626V212.888c0-4.466,3.618-8.084,8.084-8.084
	c4.466,0,8.084,3.618,8.084,8.084v78.146h91.621v-78.146c0-4.466,3.618-8.084,8.084-8.084s8.084,3.618,8.084,8.084v86.23
	c0,7.429,6.044,13.474,13.474,13.474h75.453C338.884,312.592,344.927,306.548,344.927,299.119z"/>
</svg>