<?xml version="1.0" encoding="utf-8"?>
<!-- Uploaded to: SVG Repo, www.svgrepo.com, Generator: SVG Repo Mixer Tools -->
<svg width="800px" height="800px" viewBox="0 0 1024 1024" class="icon"  version="1.1" xmlns="http://www.w3.org/2000/svg"><path d="M395.52 258.56h-217.6l25.6-76.8h166.4z" fill="#E96A60" /><path d="M395.52 271.36h-217.6c-3.84 0-7.68-2.56-10.24-5.12-2.56-3.84-2.56-7.68-1.28-11.52l25.6-76.8c1.28-5.12 6.4-8.96 11.52-8.96h166.4c5.12 0 10.24 3.84 11.52 8.96l25.6 76.8c1.28 3.84 1.28 7.68-1.28 11.52-2.56 3.84-6.4 5.12-10.24 5.12z m-199.68-25.6h181.76l-16.64-51.2H212.48l-16.64 51.2z" fill="#231C1C" /><path d="M920.32 796.16c0 14.08-11.52 25.6-25.6 25.6h-742.4c-14.08 0-25.6-11.52-25.6-25.6v-537.6c0-14.08 11.52-25.6 25.6-25.6h742.4c14.08 0 25.6 11.52 25.6 25.6v537.6z" fill="#FAC546" /><path d="M894.72 834.56h-742.4c-21.76 0-38.4-16.64-38.4-38.4v-537.6c0-21.76 16.64-38.4 38.4-38.4h742.4c21.76 0 38.4 16.64 38.4 38.4v537.6c0 21.76-17.92 38.4-38.4 38.4z m-742.4-588.8c-7.68 0-12.8 5.12-12.8 12.8v537.6c0 7.68 5.12 12.8 12.8 12.8h742.4c7.68 0 12.8-5.12 12.8-12.8v-537.6c0-7.68-5.12-12.8-12.8-12.8h-742.4z" fill="#231C1C" /><path d="M920.32 796.16c0 14.08-11.52 25.6-25.6 25.6h-742.4c-14.08 0-25.6-11.52-25.6-25.6v-12.8c0-14.08-1.28-51.2 12.8-51.2h768c14.08 0 12.8 37.12 12.8 51.2v12.8z" fill="#FAF1C7" /><path d="M894.72 834.56h-742.4c-21.76 0-38.4-16.64-38.4-38.4v-16.64c0-23.04 0-43.52 11.52-55.04 3.84-3.84 8.96-6.4 14.08-6.4h768c5.12 0 10.24 2.56 14.08 6.4 10.24 10.24 11.52 32 11.52 55.04v16.64c0 21.76-17.92 38.4-38.4 38.4z m-752.64-89.6c-1.28 3.84-2.56 12.8-2.56 34.56v16.64c0 7.68 5.12 12.8 12.8 12.8h742.4c7.68 0 12.8-5.12 12.8-12.8v-16.64c0-21.76-1.28-30.72-2.56-34.56H142.08z" fill="#231C1C" /><path d="M126.72 245.76v128h793.6v-128" fill="#FAF1C7" /><path d="M920.32 386.56h-793.6c-7.68 0-12.8-5.12-12.8-12.8v-128h25.6v115.2h768v-115.2h25.6v128c0 7.68-6.4 12.8-12.8 12.8z" fill="#231C1C" /><path d="M510.72 552.96m-204.8 0a204.8 204.8 0 1 0 409.6 0 204.8 204.8 0 1 0-409.6 0Z" fill="#F7E6A3" /><path d="M510.72 770.56c-120.32 0-217.6-97.28-217.6-217.6s97.28-217.6 217.6-217.6 217.6 97.28 217.6 217.6-97.28 217.6-217.6 217.6z m0-409.6c-106.24 0-192 85.76-192 192s85.76 192 192 192 192-85.76 192-192-85.76-192-192-192z" fill="#231C1C" /><path d="M510.72 552.96m-140.8 0a140.8 140.8 0 1 0 281.6 0 140.8 140.8 0 1 0-281.6 0Z" fill="#E96A60" /><path d="M510.72 706.56c-84.48 0-153.6-69.12-153.6-153.6s69.12-153.6 153.6-153.6 153.6 69.12 153.6 153.6-69.12 153.6-153.6 153.6z m0-281.6c-70.4 0-128 57.6-128 128s57.6 128 128 128 128-57.6 128-128-57.6-128-128-128z" fill="#231C1C" /></svg>