<?xml version="1.0" encoding="iso-8859-1"?>
<!-- Uploaded to: SVG Repo, www.svgrepo.com, Generator: SVG Repo Mixer Tools -->
<svg height="800px" width="800px" version="1.1" id="Layer_1" xmlns="http://www.w3.org/2000/svg" xmlns:xlink="http://www.w3.org/1999/xlink" 
	 viewBox="0 0 512 512" xml:space="preserve">
<path style="fill:#FFE77C;" d="M450.018,191.326v312.589H61.983V191.326L256.005,72.758L450.018,191.326z"/>
<path style="fill:#FFFFA6;" d="M191.332,202.105L191.332,202.105c0-23.812,19.303-43.116,43.115-43.116h43.115
	c23.812,0,43.115,19.304,43.115,43.116l0,0c0,23.812-19.303,43.116-43.115,43.116h-43.115
	C210.636,245.221,191.332,225.917,191.332,202.105z M342.235,277.558h-172.46c-17.859,0-32.336,14.477-32.336,32.337v97.011
	c0,17.86,14.477,32.337,32.336,32.337h172.46c17.859,0,32.336-14.477,32.336-32.337v-97.011
	C374.571,292.035,360.094,277.558,342.235,277.558z"/>
<path style="fill:#F4AB53;" d="M148.213,18.863v129.347H83.541V18.863c0-5.953,4.826-10.779,10.779-10.779h43.115
	C143.387,8.084,148.213,12.91,148.213,18.863z"/>
<path style="fill:#A7E5CB;" d="M353.009,309.895v97.011c0,5.953-4.826,10.779-10.779,10.779H169.77
	c-5.953,0-10.779-4.826-10.779-10.779v-97.011c0-5.953,4.826-10.779,10.779-10.779h172.46
	C348.183,299.116,353.009,303.941,353.009,309.895z M239.832,223.663h32.337c11.906,0,21.558-9.651,21.558-21.558l0,0
	c0-11.906-9.651-21.558-21.558-21.558h-32.337c-11.906,0-21.558,9.651-21.558,21.558l0,0
	C218.275,214.012,227.927,223.663,239.832,223.663z"/>
<path style="fill:#FF8D40;" d="M12.871,219.262c-9.346-14.983-4.585-34.589,10.632-43.789L239.079,45.129
	c10.381-6.277,23.464-6.277,33.845,0l215.575,130.343c15.218,9.201,19.979,28.807,10.632,43.789
	c-6.104,9.785-16.718,15.179-27.585,15.18c-5.771,0-11.613-1.52-16.892-4.713L256.001,109.618L57.348,229.73
	C42.129,238.932,22.217,234.245,12.871,219.262z"/>
<path d="M511.985,503.916c0,4.465-3.62,8.084-8.084,8.084H135.822c-4.465,0-8.084-3.62-8.084-8.084s3.62-8.084,8.084-8.084h306.105
	V231.486l-38.469-23.261c-3.821-2.31-5.045-7.28-2.736-11.1c2.31-3.821,7.281-5.046,11.1-2.736l47.006,28.422
	c3.836,2.32,8.231,3.546,12.708,3.546c8.536-0.001,16.284-4.253,20.725-11.375c3.344-5.36,4.381-11.68,2.919-17.795
	c-1.481-6.198-5.343-11.454-10.874-14.798L268.739,52.047c-7.859-4.751-17.619-4.751-25.477,0L141.745,113.43
	c-3.82,2.31-8.79,1.085-11.1-2.736c-2.31-3.82-1.085-8.79,2.735-11.1l6.753-4.084V18.863c0-1.485-1.209-2.695-2.695-2.695H94.326
	c-1.485,0-2.695,1.209-2.695,2.695v105.974l18.692-11.302c3.82-2.311,8.789-1.085,11.1,2.736c2.31,3.82,1.085,8.79-2.735,11.1
	l-90.994,55.019c-5.531,3.345-9.393,8.599-10.874,14.798c-1.462,6.115-0.426,12.435,2.918,17.794
	c7.005,11.23,22.003,14.74,33.433,7.83L251.818,102.7c2.572-1.554,5.794-1.554,8.364,0l126.927,76.748
	c3.821,2.31,5.045,7.28,2.736,11.1c-2.31,3.82-7.279,5.047-11.1,2.736l-122.745-74.22L70.074,231.486v264.345h35.028
	c4.465,0,8.084,3.62,8.084,8.084s-3.62,8.084-8.084,8.084H8.1c-4.465,0-8.084-3.62-8.084-8.084s3.62-8.084,8.084-8.084h45.807
	v-255.59c-17.561,6.129-37.739-0.435-47.885-16.702c-5.651-9.06-7.401-19.753-4.925-30.111c2.495-10.44,8.97-19.274,18.234-24.875
	l56.134-33.942V18.863C75.464,8.463,83.925,0,94.326,0h43.113c10.401,0,18.862,8.463,18.862,18.863v66.872l78.595-47.523
	c13.017-7.873,29.189-7.872,42.208,0L492.67,168.555c9.262,5.601,15.738,14.435,18.234,24.875
	c2.476,10.356,0.727,21.05-4.926,30.111c-7.414,11.887-20.289,18.984-34.442,18.986c-4.596,0-9.139-0.778-13.442-2.284v255.589
	H503.9C508.366,495.832,511.985,499.451,511.985,503.916z M239.833,231.747c-16.344,0-29.641-13.297-29.641-29.642
	s13.297-29.642,29.641-29.642h32.335c16.344,0,29.641,13.297,29.641,29.642s-13.297,29.642-29.641,29.642H239.833z M239.833,215.579
	h32.335c7.429,0,13.473-6.044,13.473-13.474s-6.044-13.474-13.473-13.474h-32.335c-7.429,0-13.473,6.044-13.473,13.474
	S232.404,215.579,239.833,215.579z M169.774,291.032h172.453c10.401,0,18.862,8.463,18.862,18.863v97.011
	c0,10.401-8.461,18.863-18.862,18.863H169.774c-10.401,0-18.862-8.463-18.862-18.863v-97.011
	C150.911,299.494,159.374,291.032,169.774,291.032z M247.916,350.316H167.08v56.589c0,1.485,1.209,2.695,2.695,2.695h78.142V350.316
	z M264.085,409.6h78.143c1.485,0,2.695-1.209,2.695-2.695v-97.011c0-1.485-1.209-2.695-2.695-2.695h-78.143v26.947h56.586
	c4.465,0,8.084,3.62,8.084,8.084s-3.62,8.084-8.084,8.084h-56.586V409.6z M247.916,307.2h-78.143c-1.485,0-2.695,1.209-2.695,2.695
	v24.253h80.838V307.2z"/>
</svg>